<?xml version="1.0" standalone="no"?>
<!DOCTYPE svg PUBLIC "-//W3C//DTD SVG 20010904//EN"
 "http://www.w3.org/TR/2001/REC-SVG-20010904/DTD/svg10.dtd">
<svg version="1.0" xmlns="http://www.w3.org/2000/svg"
 width="3825.000000pt" height="3825.000000pt" viewBox="0 0 3825.000000 3825.000000"
 preserveAspectRatio="xMidYMid meet">
<metadata>
Created by potrace 1.14, written by Peter Selinger 2001-2017
</metadata>
<g transform="translate(0.000000,3825.000000) scale(0.100000,-0.100000)"
fill="#000000" stroke="none">
<path d="M4500 31875 l0 -375 -375 0 -375 0 0 -375 0 -375 375 0 375 0 0 -375
0 -375 1125 0 1125 0 0 -375 0 -375 375 0 375 0 0 -750 0 -750 -375 0 -375 0
0 375 0 375 -375 0 -375 0 0 375 0 375 -2250 0 -2250 0 0 -375 0 -375 -375 0
-375 0 0 -375 0 -375 -375 0 -375 0 0 -750 0 -750 375 0 375 0 0 -375 0 -375
750 0 750 0 0 375 0 375 1500 0 1500 0 0 -375 0 -375 -750 0 -750 0 0 -375 0
-375 -375 0 -375 0 0 -750 0 -750 375 0 375 0 0 -375 0 -375 750 0 750 0 0
375 0 375 375 0 375 0 0 375 0 375 750 0 750 0 0 -750 0 -750 -750 0 -750 0 0
-375 0 -375 -1125 0 -1125 0 0 -375 0 -375 -375 0 -375 0 0 -1125 0 -1125 375
0 375 0 0 -375 0 -375 375 0 375 0 0 -375 0 -375 750 0 750 0 0 375 0 375 375
0 375 0 0 375 0 375 375 0 375 0 0 375 0 375 375 0 375 0 0 375 0 375 375 0
375 0 0 375 0 375 750 0 750 0 0 375 0 375 375 0 375 0 0 -1125 0 -1125 375 0
375 0 0 -375 0 -375 375 0 375 0 0 375 0 375 375 0 375 0 0 -1125 0 -1125 375
0 375 0 0 -375 0 -375 750 0 750 0 0 375 0 375 750 0 750 0 0 -375 0 -375 375
0 375 0 0 -375 0 -375 375 0 375 0 0 -375 0 -375 375 0 375 0 0 -375 0 -375
375 0 375 0 0 -375 0 -375 375 0 375 0 0 -375 0 -375 375 0 375 0 0 -375 0
-375 375 0 375 0 0 -375 0 -375 375 0 375 0 0 -375 0 -375 375 0 375 0 0 -375
0 -375 375 0 375 0 0 -375 0 -375 375 0 375 0 0 -375 0 -375 375 0 375 0 0
-375 0 -375 375 0 375 0 0 -375 0 -375 375 0 375 0 0 -375 0 -375 2250 0 2250
0 0 375 0 375 750 0 750 0 0 375 0 375 375 0 375 0 0 375 0 375 375 0 375 0 0
375 0 375 375 0 375 0 0 375 0 375 375 0 375 0 0 375 0 375 375 0 375 0 0 375
0 375 375 0 375 0 0 750 0 750 -375 0 -375 0 0 750 0 750 -375 0 -375 0 0 750
0 750 -375 0 -375 0 0 750 0 750 -375 0 -375 0 0 750 0 750 -375 0 -375 0 0
750 0 750 -375 0 -375 0 0 750 0 750 -375 0 -375 0 0 750 0 750 -375 0 -375 0
0 750 0 750 -375 0 -375 0 0 750 0 750 -375 0 -375 0 0 750 0 750 -375 0 -375
0 0 750 0 750 -375 0 -375 0 0 375 0 375 -375 0 -375 0 0 375 0 375 -375 0
-375 0 0 375 0 375 -375 0 -375 0 0 375 0 375 -1875 0 -1875 0 0 -375 0 -375
-750 0 -750 0 0 -375 0 -375 -750 0 -750 0 0 -375 0 -375 -375 0 -375 0 0
-375 0 -375 -375 0 -375 0 0 -375 0 -375 -750 0 -750 0 0 -375 0 -375 -2250 0
-2250 0 0 750 0 750 -750 0 -750 0 0 375 0 375 -1125 0 -1125 0 0 375 0 375
-375 0 -375 0 0 375 0 375 -375 0 -375 0 0 375 0 375 -1500 0 -1500 0 0 -375z"/>
</g>
</svg>
